solid OpenSCAD_Model
  facet normal -1 0 0
    outer loop
      vertex 0 60.5 0
      vertex 0 10 0
      vertex 0 60.5 4
    endloop
  endfacet
  facet normal -1 0 0
    outer loop
      vertex 0 112.5 0
      vertex 0 70.5 0
      vertex 0 112.5 4
    endloop
  endfacet
  facet normal -1 0 0
    outer loop
      vertex 0 122.5 4
      vertex 0 121 14.3275
      vertex 0 122.5 14.3275
    endloop
  endfacet
  facet normal -1 0 0
    outer loop
      vertex 0 112.5 4
      vertex 0 121 14.3275
      vertex 0 122.5 4
    endloop
  endfacet
  facet normal -1 0 0
    outer loop
      vertex 0 112.5 4
      vertex 0 121 14.35
      vertex 0 121 14.3275
    endloop
  endfacet
  facet normal -1 0 0
    outer loop
      vertex 0 70.5 4
      vertex 0 112.5 4
      vertex 0 70.5 0
    endloop
  endfacet
  facet normal -1 0 0
    outer loop
      vertex 0 112.5 4
      vertex 0 70.5 4
      vertex 0 121 14.35
    endloop
  endfacet
  facet normal -1 0 0
    outer loop
      vertex 0 60.5 4
      vertex 0 121 14.35
      vertex 0 70.5 4
    endloop
  endfacet
  facet normal -1 0 0
    outer loop
      vertex 0 10 4
      vertex 0 60.5 4
      vertex 0 10 0
    endloop
  endfacet
  facet normal -1 0 0
    outer loop
      vertex 0 0 14.35
      vertex 0 60.5 4
      vertex 0 10 4
    endloop
  endfacet
  facet normal -1 0 0
    outer loop
      vertex 0 0 14.35
      vertex 0 10 4
      vertex 0 0 4
    endloop
  endfacet
  facet normal -1 0 0
    outer loop
      vertex 0 60.5 4
      vertex 0 0 14.35
      vertex 0 121 14.35
    endloop
  endfacet
  facet normal -1 0 0
    outer loop
      vertex 0 0 -0.0224991
      vertex 0 3 0
      vertex 0 3 -0.0224991
    endloop
  endfacet
  facet normal -1 -0 0
    outer loop
      vertex 0 3 0
      vertex 0 0 -0.0224991
      vertex 0 0 0
    endloop
  endfacet
  facet normal -1 0 0
    outer loop
      vertex 0 119.5 -0.0224991
      vertex 0 122.5 0
      vertex 0 122.5 -0.0224991
    endloop
  endfacet
  facet normal -1 -0 0
    outer loop
      vertex 0 122.5 0
      vertex 0 119.5 -0.0224991
      vertex 0 119.5 0
    endloop
  endfacet
  facet normal -0 0 1
    outer loop
      vertex 3 119.5 8
      vertex 48.5 3 8
      vertex 48.5 119.5 8
    endloop
  endfacet
  facet normal 0 0 1
    outer loop
      vertex 48.5 3 8
      vertex 3 119.5 8
      vertex 3 3 8
    endloop
  endfacet
  facet normal 1 0 0
    outer loop
      vertex 51.5 121 14.35
      vertex 51.5 112.5 4
      vertex 51.5 121 14.3275
    endloop
  endfacet
  facet normal 1 0 0
    outer loop
      vertex 51.5 112.5 4
      vertex 51.5 70.5 4
      vertex 51.5 112.5 0
    endloop
  endfacet
  facet normal 1 0 0
    outer loop
      vertex 51.5 121 14.35
      vertex 51.5 70.5 4
      vertex 51.5 112.5 4
    endloop
  endfacet
  facet normal 1 0 0
    outer loop
      vertex 51.5 121 14.35
      vertex 51.5 60.5 4
      vertex 51.5 70.5 4
    endloop
  endfacet
  facet normal 1 0 0
    outer loop
      vertex 51.5 60.5 4
      vertex 51.5 10 4
      vertex 51.5 60.5 0
    endloop
  endfacet
  facet normal 1 -0 0
    outer loop
      vertex 51.5 0 14.35
      vertex 51.5 60.5 4
      vertex 51.5 121 14.35
    endloop
  endfacet
  facet normal 1 0 0
    outer loop
      vertex 51.5 60.5 4
      vertex 51.5 0 14.35
      vertex 51.5 10 4
    endloop
  endfacet
  facet normal 1 0 0
    outer loop
      vertex 51.5 10 4
      vertex 51.5 0 14.35
      vertex 51.5 0 4
    endloop
  endfacet
  facet normal 1 -0 0
    outer loop
      vertex 51.5 121 14.3275
      vertex 51.5 122.5 4
      vertex 51.5 122.5 14.3275
    endloop
  endfacet
  facet normal 1 0 0
    outer loop
      vertex 51.5 122.5 4
      vertex 51.5 121 14.3275
      vertex 51.5 112.5 4
    endloop
  endfacet
  facet normal 1 0 0
    outer loop
      vertex 51.5 112.5 0
      vertex 51.5 70.5 4
      vertex 51.5 70.5 0
    endloop
  endfacet
  facet normal 1 0 0
    outer loop
      vertex 51.5 60.5 0
      vertex 51.5 10 4
      vertex 51.5 10 0
    endloop
  endfacet
  facet normal 1 -0 0
    outer loop
      vertex 51.5 119.5 0
      vertex 51.5 122.5 -0.0224991
      vertex 51.5 122.5 0
    endloop
  endfacet
  facet normal 1 0 0
    outer loop
      vertex 51.5 122.5 -0.0224991
      vertex 51.5 119.5 0
      vertex 51.5 119.5 -0.0224991
    endloop
  endfacet
  facet normal 0 1 -0
    outer loop
      vertex 3 121 14.3275
      vertex 0 121 14.35
      vertex 3 121 14.35
    endloop
  endfacet
  facet normal 0 1 0
    outer loop
      vertex 0 121 14.35
      vertex 3 121 14.3275
      vertex 0 121 14.3275
    endloop
  endfacet
  facet normal 0 0 -1
    outer loop
      vertex -10 60.5 0
      vertex 0 70.5 0
      vertex 0 60.5 0
    endloop
  endfacet
  facet normal -0 0 -1
    outer loop
      vertex 0 70.5 0
      vertex -10 60.5 0
      vertex -10 70.5 0
    endloop
  endfacet
  facet normal 0 0 -1
    outer loop
      vertex 60 0 0
      vertex 51.5 10 0
      vertex 60 10 0
    endloop
  endfacet
  facet normal 0 0 -1
    outer loop
      vertex 0 60.5 0
      vertex 51.5 60.5 0
      vertex 51.5 10 0
    endloop
  endfacet
  facet normal 0 0 -1
    outer loop
      vertex 51.5 60.5 0
      vertex 0 60.5 0
      vertex 51.5 70.5 0
    endloop
  endfacet
  facet normal 0 0 -1
    outer loop
      vertex 0 70.5 0
      vertex 51.5 70.5 0
      vertex 0 60.5 0
    endloop
  endfacet
  facet normal 0 0 -1
    outer loop
      vertex 48.5 3 0
      vertex 60 0 0
      vertex 48.5 0 0
    endloop
  endfacet
  facet normal 0 0 -1
    outer loop
      vertex 60 0 0
      vertex 48.5 3 0
      vertex 51.5 10 0
    endloop
  endfacet
  facet normal 0 0 -1
    outer loop
      vertex 0 10 0
      vertex 51.5 10 0
      vertex 48.5 3 0
    endloop
  endfacet
  facet normal 0 0 -1
    outer loop
      vertex 0 10 0
      vertex 48.5 3 0
      vertex 0 3 0
    endloop
  endfacet
  facet normal 0 0 -1
    outer loop
      vertex 51.5 10 0
      vertex 0 10 0
      vertex 0 60.5 0
    endloop
  endfacet
  facet normal 0 0 -1
    outer loop
      vertex 51.5 70.5 0
      vertex 0 70.5 0
      vertex 51.5 112.5 0
    endloop
  endfacet
  facet normal 0 0 -1
    outer loop
      vertex 0 112.5 0
      vertex 51.5 112.5 0
      vertex 0 70.5 0
    endloop
  endfacet
  facet normal 0 0 -1
    outer loop
      vertex 51.5 112.5 0
      vertex 0 112.5 0
      vertex 51.5 119.5 0
    endloop
  endfacet
  facet normal 0 0 -1
    outer loop
      vertex 0 112.5 0
      vertex 0 119.5 0
      vertex 51.5 119.5 0
    endloop
  endfacet
  facet normal 0 0 -1
    outer loop
      vertex -10 112.5 0
      vertex 0 119.5 0
      vertex 0 112.5 0
    endloop
  endfacet
  facet normal 0 0 -1
    outer loop
      vertex -10 122.5 0
      vertex 0 119.5 0
      vertex -10 112.5 0
    endloop
  endfacet
  facet normal 0 0 -1
    outer loop
      vertex 0 119.5 0
      vertex -10 122.5 0
      vertex 0 122.5 0
    endloop
  endfacet
  facet normal 0 0 -1
    outer loop
      vertex 51.5 60.5 0
      vertex 60 70.5 0
      vertex 60 60.5 0
    endloop
  endfacet
  facet normal -0 0 -1
    outer loop
      vertex 60 70.5 0
      vertex 51.5 60.5 0
      vertex 51.5 70.5 0
    endloop
  endfacet
  facet normal 0 0 -1
    outer loop
      vertex 51.5 119.5 0
      vertex 60 112.5 0
      vertex 51.5 112.5 0
    endloop
  endfacet
  facet normal 0 0 -1
    outer loop
      vertex 60 112.5 0
      vertex 51.5 119.5 0
      vertex 60 122.5 0
    endloop
  endfacet
  facet normal -0 0 -1
    outer loop
      vertex 60 122.5 0
      vertex 51.5 119.5 0
      vertex 51.5 122.5 0
    endloop
  endfacet
  facet normal 0 0 -1
    outer loop
      vertex -10 0 0
      vertex 0 3 0
      vertex 0 0 0
    endloop
  endfacet
  facet normal 0 0 -1
    outer loop
      vertex -10 10 0
      vertex 0 3 0
      vertex -10 0 0
    endloop
  endfacet
  facet normal 0 0 -1
    outer loop
      vertex 0 3 0
      vertex -10 10 0
      vertex 0 10 0
    endloop
  endfacet
  facet normal 0 -1 0
    outer loop
      vertex 0 0 14.35
      vertex 3 0 14.3275
      vertex 3 0 14.35
    endloop
  endfacet
  facet normal 0 -1 0
    outer loop
      vertex 48.5 0 0
      vertex 3 0 14.3275
      vertex 0 0 4
    endloop
  endfacet
  facet normal 0 -1 0
    outer loop
      vertex 0 0 4
      vertex 3 0 14.3275
      vertex 0 0 14.35
    endloop
  endfacet
  facet normal 0 -1 0
    outer loop
      vertex 48.5 0 14.3275
      vertex 51.5 0 14.35
      vertex 48.5 0 14.35
    endloop
  endfacet
  facet normal 0 -1 0
    outer loop
      vertex 3 0 14.3275
      vertex 48.5 0 0
      vertex 48.5 0 14.3275
    endloop
  endfacet
  facet normal -0 -1 0
    outer loop
      vertex 51.5 0 4
      vertex 48.5 0 14.3275
      vertex 48.5 0 0
    endloop
  endfacet
  facet normal 0 -1 0
    outer loop
      vertex 0 0 -0.0224991
      vertex 48.5 0 0
      vertex 0 0 0
    endloop
  endfacet
  facet normal 0 -1 -0
    outer loop
      vertex 48.5 0 0
      vertex 0 0 -0.0224991
      vertex 48.5 0 -0.0224991
    endloop
  endfacet
  facet normal 0 -1 0
    outer loop
      vertex 0 0 0
      vertex 0 0 4
      vertex -10 0 4
    endloop
  endfacet
  facet normal 0 -1 0
    outer loop
      vertex 48.5 0 0
      vertex 0 0 4
      vertex 0 0 0
    endloop
  endfacet
  facet normal 0 -1 0
    outer loop
      vertex 0 0 0
      vertex -10 0 4
      vertex -10 0 0
    endloop
  endfacet
  facet normal 0 -1 0
    outer loop
      vertex 48.5 0 14.3275
      vertex 51.5 0 4
      vertex 51.5 0 14.35
    endloop
  endfacet
  facet normal 0 -1 0
    outer loop
      vertex 60 0 0
      vertex 51.5 0 4
      vertex 48.5 0 0
    endloop
  endfacet
  facet normal 0 -1 0
    outer loop
      vertex 51.5 0 4
      vertex 60 0 0
      vertex 60 0 4
    endloop
  endfacet
  facet normal -0 0 1
    outer loop
      vertex 0 121 14.35
      vertex 3 0 14.35
      vertex 3 121 14.35
    endloop
  endfacet
  facet normal 0 0 1
    outer loop
      vertex 3 0 14.35
      vertex 0 121 14.35
      vertex 0 0 14.35
    endloop
  endfacet
  facet normal 1 0 0
    outer loop
      vertex 3 121 14.35
      vertex 3 119.5 14.3275
      vertex 3 121 14.3275
    endloop
  endfacet
  facet normal 1 0 0
    outer loop
      vertex 3 119.5 14.3275
      vertex 3 3 14.3275
      vertex 3 119.5 8
    endloop
  endfacet
  facet normal 1 0 0
    outer loop
      vertex 3 121 14.35
      vertex 3 3 14.3275
      vertex 3 119.5 14.3275
    endloop
  endfacet
  facet normal 1 -0 0
    outer loop
      vertex 3 0 14.35
      vertex 3 3 14.3275
      vertex 3 121 14.35
    endloop
  endfacet
  facet normal 1 0 0
    outer loop
      vertex 3 3 14.3275
      vertex 3 0 14.35
      vertex 3 0 14.3275
    endloop
  endfacet
  facet normal 1 0 0
    outer loop
      vertex 3 119.5 8
      vertex 3 3 14.3275
      vertex 3 3 8
    endloop
  endfacet
  facet normal -1 0 0
    outer loop
      vertex 48.5 119.5 8
      vertex 48.5 3 8
      vertex 48.5 119.5 14.3275
    endloop
  endfacet
  facet normal -1 0 0
    outer loop
      vertex 48.5 119.5 14.3275
      vertex 48.5 121 14.35
      vertex 48.5 121 14.3275
    endloop
  endfacet
  facet normal -1 0 0
    outer loop
      vertex 48.5 3 14.3275
      vertex 48.5 119.5 14.3275
      vertex 48.5 3 8
    endloop
  endfacet
  facet normal -1 0 0
    outer loop
      vertex 48.5 3 14.3275
      vertex 48.5 121 14.35
      vertex 48.5 119.5 14.3275
    endloop
  endfacet
  facet normal -1 0 0
    outer loop
      vertex 48.5 0 14.35
      vertex 48.5 3 14.3275
      vertex 48.5 0 14.3275
    endloop
  endfacet
  facet normal -1 0 0
    outer loop
      vertex 48.5 3 14.3275
      vertex 48.5 0 14.35
      vertex 48.5 121 14.35
    endloop
  endfacet
  facet normal 1 -0 0
    outer loop
      vertex 48.5 0 0
      vertex 48.5 3 -0.0224991
      vertex 48.5 3 0
    endloop
  endfacet
  facet normal 1 0 0
    outer loop
      vertex 48.5 3 -0.0224991
      vertex 48.5 0 0
      vertex 48.5 0 -0.0224991
    endloop
  endfacet
  facet normal -0 0 1
    outer loop
      vertex 48.5 121 14.35
      vertex 51.5 0 14.35
      vertex 51.5 121 14.35
    endloop
  endfacet
  facet normal 0 0 1
    outer loop
      vertex 51.5 0 14.35
      vertex 48.5 121 14.35
      vertex 48.5 0 14.35
    endloop
  endfacet
  facet normal 0 1 -0
    outer loop
      vertex 51.5 121 14.3275
      vertex 48.5 121 14.35
      vertex 51.5 121 14.35
    endloop
  endfacet
  facet normal 0 1 0
    outer loop
      vertex 48.5 121 14.35
      vertex 51.5 121 14.3275
      vertex 48.5 121 14.3275
    endloop
  endfacet
  facet normal 0 0 1
    outer loop
      vertex 51.5 122.5 14.3275
      vertex 48.5 121 14.3275
      vertex 51.5 121 14.3275
    endloop
  endfacet
  facet normal 0 0 1
    outer loop
      vertex 48.5 121 14.3275
      vertex 3 121 14.3275
      vertex 48.5 119.5 14.3275
    endloop
  endfacet
  facet normal 0 0 1
    outer loop
      vertex 51.5 122.5 14.3275
      vertex 3 121 14.3275
      vertex 48.5 121 14.3275
    endloop
  endfacet
  facet normal -0 0 1
    outer loop
      vertex 0 122.5 14.3275
      vertex 3 121 14.3275
      vertex 51.5 122.5 14.3275
    endloop
  endfacet
  facet normal 0 0 1
    outer loop
      vertex 3 121 14.3275
      vertex 0 122.5 14.3275
      vertex 0 121 14.3275
    endloop
  endfacet
  facet normal 0 0 1
    outer loop
      vertex 48.5 119.5 14.3275
      vertex 3 121 14.3275
      vertex 3 119.5 14.3275
    endloop
  endfacet
  facet normal 0 0 -1
    outer loop
      vertex 0 119.5 -0.0224991
      vertex 51.5 122.5 -0.0224991
      vertex 51.5 119.5 -0.0224991
    endloop
  endfacet
  facet normal -0 0 -1
    outer loop
      vertex 51.5 122.5 -0.0224991
      vertex 0 119.5 -0.0224991
      vertex 0 122.5 -0.0224991
    endloop
  endfacet
  facet normal 0 -1 0
    outer loop
      vertex 0 119.5 -0.0224991
      vertex 51.5 119.5 0
      vertex 0 119.5 0
    endloop
  endfacet
  facet normal 0 -1 -0
    outer loop
      vertex 51.5 119.5 0
      vertex 0 119.5 -0.0224991
      vertex 51.5 119.5 -0.0224991
    endloop
  endfacet
  facet normal 0 -1 0
    outer loop
      vertex 3 119.5 8
      vertex 48.5 119.5 14.3275
      vertex 3 119.5 14.3275
    endloop
  endfacet
  facet normal 0 -1 -0
    outer loop
      vertex 48.5 119.5 14.3275
      vertex 3 119.5 8
      vertex 48.5 119.5 8
    endloop
  endfacet
  facet normal 0 1 -0
    outer loop
      vertex 51.5 122.5 -0.0224991
      vertex 0 122.5 0
      vertex 51.5 122.5 0
    endloop
  endfacet
  facet normal 0 1 0
    outer loop
      vertex 0 122.5 0
      vertex 51.5 122.5 -0.0224991
      vertex 0 122.5 -0.0224991
    endloop
  endfacet
  facet normal 0 1 0
    outer loop
      vertex 51.5 122.5 0
      vertex 51.5 122.5 4
      vertex 60 122.5 4
    endloop
  endfacet
  facet normal 0 1 0
    outer loop
      vertex 51.5 122.5 4
      vertex 51.5 122.5 0
      vertex 0 122.5 4
    endloop
  endfacet
  facet normal 0 1 0
    outer loop
      vertex 51.5 122.5 0
      vertex 60 122.5 4
      vertex 60 122.5 0
    endloop
  endfacet
  facet normal 0 1 0
    outer loop
      vertex 0 122.5 4
      vertex 51.5 122.5 0
      vertex 0 122.5 0
    endloop
  endfacet
  facet normal 0 1 0
    outer loop
      vertex 0 122.5 4
      vertex 0 122.5 0
      vertex -10 122.5 4
    endloop
  endfacet
  facet normal 0 1 0
    outer loop
      vertex -10 122.5 4
      vertex 0 122.5 0
      vertex -10 122.5 0
    endloop
  endfacet
  facet normal 0 1 -0
    outer loop
      vertex 51.5 122.5 4
      vertex 0 122.5 14.3275
      vertex 51.5 122.5 14.3275
    endloop
  endfacet
  facet normal 0 1 0
    outer loop
      vertex 0 122.5 14.3275
      vertex 51.5 122.5 4
      vertex 0 122.5 4
    endloop
  endfacet
  facet normal -0 0 1
    outer loop
      vertex 3 3 14.3275
      vertex 48.5 0 14.3275
      vertex 48.5 3 14.3275
    endloop
  endfacet
  facet normal 0 0 1
    outer loop
      vertex 48.5 0 14.3275
      vertex 3 3 14.3275
      vertex 3 0 14.3275
    endloop
  endfacet
  facet normal 0 0 -1
    outer loop
      vertex 0 0 -0.0224991
      vertex 48.5 3 -0.0224991
      vertex 48.5 0 -0.0224991
    endloop
  endfacet
  facet normal -0 0 -1
    outer loop
      vertex 48.5 3 -0.0224991
      vertex 0 0 -0.0224991
      vertex 0 3 -0.0224991
    endloop
  endfacet
  facet normal 0 1 -0
    outer loop
      vertex 48.5 3 8
      vertex 3 3 14.3275
      vertex 48.5 3 14.3275
    endloop
  endfacet
  facet normal 0 1 0
    outer loop
      vertex 3 3 14.3275
      vertex 48.5 3 8
      vertex 3 3 8
    endloop
  endfacet
  facet normal 0 1 -0
    outer loop
      vertex 48.5 3 -0.0224991
      vertex 0 3 0
      vertex 48.5 3 0
    endloop
  endfacet
  facet normal 0 1 0
    outer loop
      vertex 0 3 0
      vertex 48.5 3 -0.0224991
      vertex 0 3 -0.0224991
    endloop
  endfacet
  facet normal -0 0 1
    outer loop
      vertex 51.5 10 4
      vertex 60 0 4
      vertex 60 10 4
    endloop
  endfacet
  facet normal 0 0 1
    outer loop
      vertex 60 0 4
      vertex 51.5 10 4
      vertex 51.5 0 4
    endloop
  endfacet
  facet normal 1 -0 0
    outer loop
      vertex 60 0 4
      vertex 60 10 0
      vertex 60 10 4
    endloop
  endfacet
  facet normal 1 0 0
    outer loop
      vertex 60 10 0
      vertex 60 0 4
      vertex 60 0 0
    endloop
  endfacet
  facet normal 0 1 -0
    outer loop
      vertex 60 10 0
      vertex 51.5 10 4
      vertex 60 10 4
    endloop
  endfacet
  facet normal 0 1 0
    outer loop
      vertex 51.5 10 4
      vertex 60 10 0
      vertex 51.5 10 0
    endloop
  endfacet
  facet normal -0 0 1
    outer loop
      vertex 51.5 70.5 4
      vertex 60 60.5 4
      vertex 60 70.5 4
    endloop
  endfacet
  facet normal 0 0 1
    outer loop
      vertex 60 60.5 4
      vertex 51.5 70.5 4
      vertex 51.5 60.5 4
    endloop
  endfacet
  facet normal 1 -0 0
    outer loop
      vertex 60 60.5 4
      vertex 60 70.5 0
      vertex 60 70.5 4
    endloop
  endfacet
  facet normal 1 0 0
    outer loop
      vertex 60 70.5 0
      vertex 60 60.5 4
      vertex 60 60.5 0
    endloop
  endfacet
  facet normal 0 1 -0
    outer loop
      vertex 60 70.5 0
      vertex 51.5 70.5 4
      vertex 60 70.5 4
    endloop
  endfacet
  facet normal 0 1 0
    outer loop
      vertex 51.5 70.5 4
      vertex 60 70.5 0
      vertex 51.5 70.5 0
    endloop
  endfacet
  facet normal 0 -1 0
    outer loop
      vertex 51.5 60.5 0
      vertex 60 60.5 4
      vertex 51.5 60.5 4
    endloop
  endfacet
  facet normal 0 -1 -0
    outer loop
      vertex 60 60.5 4
      vertex 51.5 60.5 0
      vertex 60 60.5 0
    endloop
  endfacet
  facet normal -0 0 1
    outer loop
      vertex 51.5 122.5 4
      vertex 60 112.5 4
      vertex 60 122.5 4
    endloop
  endfacet
  facet normal 0 0 1
    outer loop
      vertex 60 112.5 4
      vertex 51.5 122.5 4
      vertex 51.5 112.5 4
    endloop
  endfacet
  facet normal 1 -0 0
    outer loop
      vertex 60 112.5 4
      vertex 60 122.5 0
      vertex 60 122.5 4
    endloop
  endfacet
  facet normal 1 0 0
    outer loop
      vertex 60 122.5 0
      vertex 60 112.5 4
      vertex 60 112.5 0
    endloop
  endfacet
  facet normal 0 -1 0
    outer loop
      vertex 51.5 112.5 0
      vertex 60 112.5 4
      vertex 51.5 112.5 4
    endloop
  endfacet
  facet normal 0 -1 -0
    outer loop
      vertex 60 112.5 4
      vertex 51.5 112.5 0
      vertex 60 112.5 0
    endloop
  endfacet
  facet normal -1 0 0
    outer loop
      vertex -10 112.5 0
      vertex -10 122.5 4
      vertex -10 122.5 0
    endloop
  endfacet
  facet normal -1 -0 0
    outer loop
      vertex -10 122.5 4
      vertex -10 112.5 0
      vertex -10 112.5 4
    endloop
  endfacet
  facet normal -0 0 1
    outer loop
      vertex -10 122.5 4
      vertex 0 112.5 4
      vertex 0 122.5 4
    endloop
  endfacet
  facet normal 0 0 1
    outer loop
      vertex 0 112.5 4
      vertex -10 122.5 4
      vertex -10 112.5 4
    endloop
  endfacet
  facet normal 0 -1 0
    outer loop
      vertex -10 112.5 0
      vertex 0 112.5 4
      vertex -10 112.5 4
    endloop
  endfacet
  facet normal 0 -1 -0
    outer loop
      vertex 0 112.5 4
      vertex -10 112.5 0
      vertex 0 112.5 0
    endloop
  endfacet
  facet normal -1 0 0
    outer loop
      vertex -10 60.5 0
      vertex -10 70.5 4
      vertex -10 70.5 0
    endloop
  endfacet
  facet normal -1 -0 0
    outer loop
      vertex -10 70.5 4
      vertex -10 60.5 0
      vertex -10 60.5 4
    endloop
  endfacet
  facet normal -0 0 1
    outer loop
      vertex -10 70.5 4
      vertex 0 60.5 4
      vertex 0 70.5 4
    endloop
  endfacet
  facet normal 0 0 1
    outer loop
      vertex 0 60.5 4
      vertex -10 70.5 4
      vertex -10 60.5 4
    endloop
  endfacet
  facet normal 0 -1 0
    outer loop
      vertex -10 60.5 0
      vertex 0 60.5 4
      vertex -10 60.5 4
    endloop
  endfacet
  facet normal 0 -1 -0
    outer loop
      vertex 0 60.5 4
      vertex -10 60.5 0
      vertex 0 60.5 0
    endloop
  endfacet
  facet normal 0 1 -0
    outer loop
      vertex 0 70.5 0
      vertex -10 70.5 4
      vertex 0 70.5 4
    endloop
  endfacet
  facet normal 0 1 0
    outer loop
      vertex -10 70.5 4
      vertex 0 70.5 0
      vertex -10 70.5 0
    endloop
  endfacet
  facet normal -1 0 0
    outer loop
      vertex -10 0 0
      vertex -10 10 4
      vertex -10 10 0
    endloop
  endfacet
  facet normal -1 -0 0
    outer loop
      vertex -10 10 4
      vertex -10 0 0
      vertex -10 0 4
    endloop
  endfacet
  facet normal -0 0 1
    outer loop
      vertex -10 10 4
      vertex 0 0 4
      vertex 0 10 4
    endloop
  endfacet
  facet normal 0 0 1
    outer loop
      vertex 0 0 4
      vertex -10 10 4
      vertex -10 0 4
    endloop
  endfacet
  facet normal 0 1 -0
    outer loop
      vertex 0 10 0
      vertex -10 10 4
      vertex 0 10 4
    endloop
  endfacet
  facet normal 0 1 0
    outer loop
      vertex -10 10 4
      vertex 0 10 0
      vertex -10 10 0
    endloop
  endfacet
endsolid OpenSCAD_Model
